<svg width="17" height="18" viewBox="0 0 17 18" xmlns="http://www.w3.org/2000/svg" >
<path d="M15.3 8.78333C15.3 10.6469 14.5836 12.4342 13.3083 13.7519C12.0331 15.0697 10.3035 15.81 8.5 15.81C6.69653 15.81 4.96692 15.0697 3.69167 13.7519C2.41643 12.4342 1.7 10.6469 1.7 8.78333C1.7 6.91975 2.41643 5.13249 3.69167 3.81473C4.96692 2.49697 6.69653 1.75667 8.5 1.75667C9.146 1.75667 9.775 1.85328 10.37 2.02895L11.7045 0.649967C10.7185 0.228367 9.639 0 8.5 0C7.38376 0 6.27846 0.227188 5.24719 0.668591C4.21592 1.11 3.27889 1.75697 2.48959 2.57258C0.895533 4.21977 0 6.45385 0 8.78333C0 11.1128 0.895533 13.3469 2.48959 14.9941C3.27889 15.8097 4.21592 16.4567 5.24719 16.8981C6.27846 17.3395 7.38376 17.5667 8.5 17.5667C10.7543 17.5667 12.9163 16.6413 14.5104 14.9941C16.1045 13.3469 17 11.1128 17 8.78333M5.0235 7.09693L3.825 8.34417L7.65 12.2967L16.15 3.51333L14.9515 2.2661L7.65 9.81098L5.0235 7.09693Z" />
</svg>
