<svg width="17" height="18" viewBox="0 0 17 18" xmlns="http://www.w3.org/2000/svg">
<path d="M8.40786 15.661C6.62394 15.661 4.91308 14.9325 3.65166 13.6356C2.39023 12.3387 1.68157 10.5798 1.68157 8.74577C1.68157 6.91173 2.39023 5.15281 3.65166 3.85594C4.91308 2.55908 6.62394 1.83051 8.40786 1.83051C10.1918 1.83051 11.9026 2.55908 13.1641 3.85594C14.4255 5.15281 15.1341 6.91173 15.1341 8.74577C15.1341 10.5798 14.4255 12.3387 13.1641 13.6356C11.9026 14.9325 10.1918 15.661 8.40786 15.661ZM8.40786 0.1017C7.30372 0.1017 6.2104 0.325285 5.19031 0.75969C4.17022 1.1941 3.24335 1.83081 2.4626 2.63349C0.885825 4.25457 0 6.45322 0 8.74577C0 11.0383 0.885825 13.237 2.4626 14.858C3.24335 15.6607 4.17022 16.2974 5.19031 16.7318C6.2104 17.1663 7.30372 17.3898 8.40786 17.3898C10.6378 17.3898 12.7763 16.4791 14.3531 14.858C15.9299 13.237 16.8157 11.0383 16.8157 8.74577C16.8157 7.61061 16.5982 6.48657 16.1757 5.43783C15.7532 4.38908 15.1339 3.43616 14.3531 2.63349C13.5724 1.83081 12.6455 1.1941 11.6254 0.75969C10.6053 0.325285 9.51199 0.1017 8.40786 0.1017Z"/>
</svg>
