<svg width="26" height="26" viewBox="0 0 26 26" fill="none" xmlns="http://www.w3.org/2000/svg">
<path d="M25.233 12.454L13.533 0.754001C13.0455 0.270504 12.3866 -0.000547071 11.7 8.29026e-07H2.6C1.91044 8.29026e-07 1.24912 0.273928 0.761523 0.761523C0.273928 1.24912 8.16309e-07 1.91044 8.16309e-07 2.6V11.7C-0.000271039 12.0431 0.0673617 12.3828 0.199001 12.6997C0.33064 13.0165 0.523682 13.3041 0.767001 13.546L12.467 25.246C12.9545 25.7295 13.6134 26.0005 14.3 26C14.9884 25.9971 15.6476 25.7213 16.133 25.233L25.233 16.133C25.7213 15.6476 25.9971 14.9884 26 14.3C26.0003 13.9569 25.9326 13.6172 25.801 13.3003C25.6694 12.9835 25.4763 12.6959 25.233 12.454ZM14.3 23.4L2.6 11.7V2.6H11.7L23.4 14.3M5.85 3.9C6.23567 3.9 6.61269 4.01437 6.93336 4.22863C7.25404 4.4429 7.50397 4.74745 7.65157 5.10377C7.79916 5.46008 7.83777 5.85216 7.76253 6.23043C7.68729 6.60869 7.50157 6.95615 7.22886 7.22886C6.95615 7.50157 6.60869 7.68729 6.23043 7.76253C5.85216 7.83777 5.46008 7.79916 5.10377 7.65157C4.74745 7.50397 4.4429 7.25404 4.22863 6.93336C4.01437 6.61269 3.9 6.23567 3.9 5.85C3.9 5.33283 4.10545 4.83684 4.47114 4.47114C4.83684 4.10545 5.33283 3.9 5.85 3.9Z" fill="#0F172A"/>
</svg>
