<svg width="25" height="25" viewBox="0 0 25 25" fill="none" xmlns="http://www.w3.org/2000/svg">
<path d="M12.5028 16.875C11.31 16.875 10.1659 16.4141 9.32246 15.5936C8.47897 14.7731 8.00511 13.6603 8.00511 12.5C8.00511 11.3397 8.47897 10.2269 9.32246 9.40641C10.1659 8.58594 11.31 8.125 12.5028 8.125C13.6957 8.125 14.8397 8.58594 15.6832 9.40641C16.5267 10.2269 17.0006 11.3397 17.0006 12.5C17.0006 13.6603 16.5267 14.7731 15.6832 15.5936C14.8397 16.4141 13.6957 16.875 12.5028 16.875ZM22.0509 13.7125C22.1023 13.3125 22.1408 12.9125 22.1408 12.5C22.1408 12.0875 22.1023 11.675 22.0509 11.25L24.7624 9.2125C25.0065 9.025 25.0708 8.6875 24.9166 8.4125L22.3464 4.0875C22.1922 3.8125 21.8453 3.7 21.5626 3.8125L18.3627 5.0625C17.6945 4.575 17.0006 4.15 16.191 3.8375L15.7155 0.525C15.6641 0.225 15.3942 0 15.073 0H9.9327C9.61144 0 9.34157 0.225 9.29017 0.525L8.8147 3.8375C8.00511 4.15 7.31117 4.575 6.64293 5.0625L3.44312 3.8125C3.1604 3.7 2.81344 3.8125 2.65923 4.0875L0.0890957 8.4125C-0.077963 8.6875 -0.000858813 9.025 0.243304 9.2125L2.95479 11.25C2.90339 11.675 2.86484 12.0875 2.86484 12.5C2.86484 12.9125 2.90339 13.3125 2.95479 13.7125L0.243304 15.7875C-0.000858813 15.975 -0.077963 16.3125 0.0890957 16.5875L2.65923 20.9125C2.81344 21.1875 3.1604 21.2875 3.44312 21.1875L6.64293 19.925C7.31117 20.425 8.00511 20.85 8.8147 21.1625L9.29017 24.475C9.34157 24.775 9.61144 25 9.9327 25H15.073C15.3942 25 15.6641 24.775 15.7155 24.475L16.191 21.1625C17.0006 20.8375 17.6945 20.425 18.3627 19.925L21.5626 21.1875C21.8453 21.2875 22.1922 21.1875 22.3464 20.9125L24.9166 16.5875C25.0708 16.3125 25.0065 15.975 24.7624 15.7875L22.0509 13.7125Z" fill="#0F172A"/>
</svg>
